<?xml version="1.0" encoding="utf-8"?>
<!-- Generator: Adobe Illustrator 24.1.3, SVG Export Plug-In . SVG Version: 6.00 Build 0)  -->
<svg version="1.1" id="Calque_2" xmlns="http://www.w3.org/2000/svg" xmlns:xlink="http://www.w3.org/1999/xlink" x="0px" y="0px"
	 viewBox="0 0 850.4 850.4" style="enable-background:new 0 0 850.4 850.4;" xml:space="preserve">
<style type="text/css">
	.st0{fill:#FFFFFF;}
</style>
<path class="st0" d="M787.2,319.5c-4.3-9.8-12.6-18.7-24.8-26.4c-11.8-7.5-27.9-13.7-47.8-18.4c-19.8-4.7-44.9-7.1-74.5-7.1
	c-23,0-44.5,1.8-63.9,5.3c-10.7,1.9-20.7,4.4-30,7.4c-27.7-51.9-60.4-96.7-95.6-130.4c-53.6-51.4-106.7-70.8-149.4-54.7
	c-42.7,16.1-69.7,65.8-75.9,139.8c-1.5,17.9-1.8,36.7-0.8,56.2L90.8,371.7l-32,150.7l212.7,1.7l-11.7,53.3l49.8,0.3
	c26.8,48.6,58,90.7,91.4,122.7c41.3,39.6,82.3,60.2,118.5,60.2c10.8,0,21.1-1.8,30.9-5.5C593,739,620,689.4,626.3,615.4
	c1-11.4,1.4-23.2,1.4-35.3c6.8-0.8,13.6-1.7,20.1-2.8c21.4-3.7,40.7-9.5,57.3-17.3c16.8-7.9,31-18.2,42.3-30.8
	c11.4-12.7,19-28.3,22.6-46.4c3-14.9,3-27.7-0.1-38.1c-3.1-10.5-8.5-19.3-16-26.4c-7.4-6.9-16.5-12.4-27.2-16.2
	c-2.2-0.8-4.5-1.5-6.7-2.3c1.6-0.3,3.2-0.5,4.8-0.9c10.5-2.1,20.3-5.3,29.2-9.5c9.1-4.2,17.1-9.7,23.7-16.3
	c6.9-6.9,11.3-15,13.2-24.3C792.6,339.2,791.4,329.4,787.2,319.5z M70.6,513l28.7-135.2L225,302c1.3,19,3.8,38.6,7.3,58.6
	L86.2,444.1l-1.4,11.2l171.8,0.4c3.2,9.8,6.7,19.6,10.4,29.4c3.8,10,7.7,19.8,11.9,29.5L70.6,513z M229.5,299.3l32.3-19.5h111.9
	l-137,78.3C233.2,337.9,230.8,318.2,229.5,299.3z M234.2,370.6c4.8,24.8,11.3,50.1,19.3,75.5l-150.9-0.3L234.2,370.6z M261.5,455.7
	l34.9,0.1l17.3-76.7h56.5l-16.9,76.7h35.6l-12.7,59.3h-35.1l-11.3,53.3l-20.1-0.1c-14.1-26.3-27-54.7-38.4-84.7
	C267.9,474.2,264.6,464.9,261.5,455.7z M271.7,568l10.2-46.5c7.1,16.1,14.6,31.7,22.6,46.7L271.7,568z M548.7,750.8
	c-9.3,3.5-19.1,5.2-29.2,5.2c-65,0-144.3-70.1-204.5-178.2l22.6,0.1l11.3-53.3H384l16.8-78.5h-35.5l16.9-76.7h-76.1l-17.3,76.7
	l-30.3-0.1c-8.4-26.5-15-52.6-19.9-78l171.3-97.8H259.2l-30.2,18.2c-4.2-95.6,21.2-169,73.9-188.9c9.3-3.5,19.1-5.2,29.2-5.2
	c66.9,0,148.8,74.1,209.6,187.5c-6.1,2.1-11.8,4.5-17.2,7.1c-14.9,7.2-27.5,16.4-37.2,27.3c-9.9,11.1-16.5,24.3-19.5,39.2
	c-2.7,11.8-3.3,22.5-1.8,31.9c1.5,9.4,4.7,17.8,9.4,24.8c4.6,6.9,10.5,13,17.4,18.1c3,2.2,6.2,4.3,9.5,6.2c-3.9,0.7-7.9,1.6-12,2.6
	c-9.1,2.3-17.7,5.7-25.7,10.2c-8.1,4.6-15.3,10.6-21.3,17.8c-6.1,7.4-10.4,16.7-12.9,27.8c-2.5,11.3-1.7,22.4,2.4,33.1
	c4.1,10.7,12.3,20.3,24.3,28.5c11.7,8,27.8,14.4,47.7,19.1c19.8,4.7,44.9,7.1,74.5,7.1c15,0,29.6-0.7,43.7-2.1
	C623.3,667,597.9,732.2,548.7,750.8z M590.2,380.9c-1.8-5.2-3.7-10.4-5.7-15.6c-2-5.3-4-10.5-6.1-15.6c0.2,0,0.4-0.1,0.6-0.1
	c7.1-1.7,14.7-2.9,22.7-3.6c8.1-0.7,15.9-1.1,23.2-1.1c16.4,0,30.4,0.9,41.5,2.8c11,1.8,19.7,4.1,25.9,6.8c7.2,3.1,10.3,6,11.6,7.9
	c2.4,3.4,1.8,5.3,1.7,6c-0.5,2.1-1.3,4.3-2.3,6.6c-1,2.2-2.4,4.3-4.2,6.4c-1.7,2-4,3.6-6.6,4.9c-2.5,1.3-5.5,2-9,2.3
	c-16.1-2-32.5-3.4-48.7-4.1c-16.1-0.7-30.8-1.9-43.6-3.4C590.9,381,590.5,380.9,590.2,380.9z M580.1,366.9c1.7,4.4,3.3,8.8,4.8,13.3
	c-9.6-1.5-17.5-3.6-23.4-6.1c-7-3-7.2-7.2-6.5-10.9c0.6-2.9,2.7-5.3,6.5-7.3c3.5-1.9,7.6-3.5,12.4-4.9
	C576,356.1,578.1,361.5,580.1,366.9z M556.9,347.3c-6.3,3.5-10.1,8.1-11.3,13.9l0,0c-1.9,9.7,2.4,17.4,12.1,21.5
	c7.7,3.4,18.1,5.9,30.8,7.5c6.9,20.4,12.8,40.6,17.6,60.5c-2.2-0.2-4.5-0.3-6.7-0.5c-13-1-26.3-2.4-39.6-4.3
	c-13-1.8-25.2-4.7-36.1-8.6l-0.8-0.3l0.6-1.2l-4.8-2c-7.4-3-14.3-6.8-20.4-11.3c-6-4.4-11.1-9.7-15.1-15.7c-3.9-5.9-6.6-13-7.9-21.1
	c-1.3-8.1-0.8-17.7,1.7-28.3l0-0.1c2.7-13.2,8.5-24.9,17.3-34.8c8.9-10,20.4-18.5,34.2-25.1c5.5-2.6,11.3-5,17.6-7.1
	c8.5,16.4,16.5,33.6,24,51.5C565.2,343.5,560.8,345.3,556.9,347.3z M616.5,502.6c-5.7,0.2-11.7,0.3-18.1,0.3
	c-17,0-31.9-1.1-44.4-3.4c-12.4-2.2-22.6-5.2-30.4-8.9c-7.5-3.5-12.8-7.5-16-11.7c-2.8-3.7-3.7-7.3-2.9-10.8l0-0.2
	c0.7-3.8,2.6-7.5,5.5-11c2.8-3.3,6.9-6.6,12.4-9.7c11,3.8,23.1,6.6,35.9,8.4c13.5,1.9,27,3.4,40.2,4.4c3.3,0.3,6.5,0.5,9.7,0.7
	C611.7,474.8,614.4,488.8,616.5,502.6z M613.3,460.9c8.1,0.6,15.9,1.1,23.4,1.5c11.9,0.7,22.3,1.9,31.1,3.4c8.3,1.5,14.7,3.6,19,6.5
	c3.2,2.1,4.3,4.5,3.6,8c-1.3,5.9-9.6,11.2-24,15.5c-11.5,3.4-26.6,5.6-45.1,6.6C619.1,488.7,616.5,474.9,613.3,460.9z M499.9,484.6
	c4.1,5.6,10.5,10.4,19.6,14.7c8.6,4.1,19.6,7.3,32.8,9.7c13,2.4,28.6,3.5,46.1,3.5c6.8,0,13.3-0.1,19.5-0.4
	c2.8,20.4,4.5,40.1,5,58.8c-14,1.4-28.5,2.2-43.5,2.2c-28.9,0-53.3-2.3-72.3-6.8c-18.8-4.5-33.8-10.4-44.5-17.7
	c-10.4-7.1-17.4-15.1-20.7-24c-3.4-8.9-4.1-18.2-2-27.6c2.1-9.6,5.8-17.6,10.9-23.8c5.2-6.3,11.5-11.6,18.6-15.6
	c7.2-4.1,15.1-7.2,23.3-9.3c5.4-1.4,10.7-2.5,15.9-3.3c-2.2,1.8-4.1,3.7-5.6,5.6c-4,4.8-6.5,9.9-7.5,15.3
	C493.9,472.3,495.5,478.5,499.9,484.6z M723.3,411.1c9.4,3.4,17.5,8.1,23.9,14.1c6.3,5.9,10.8,13.3,13.4,22.1
	c2.6,8.9,2.6,20.1-0.1,33.4c-3.3,16.4-10.1,30.5-20.3,41.9c-10.4,11.6-23.5,21.2-39.2,28.5c-15.9,7.4-34.3,13-54.9,16.5
	c-6.1,1-12.3,1.9-18.6,2.6c-0.5-18.9-2.1-38.5-4.9-58.5c18.9-1,34.5-3.4,46.5-6.9c18.4-5.5,28.4-12.9,30.6-22.6l0-0.1
	c1.5-7.4-1.2-13.8-7.7-18c-5.5-3.6-12.9-6.1-22.6-7.8c-9.1-1.6-19.9-2.8-32.2-3.5c-8.3-0.5-17.1-1.1-26.2-1.7
	c-4.8-19.9-10.6-40.1-17.4-60.2c12.2,1.4,25.9,2.4,40.7,3.1c16.1,0.7,32.3,2.1,48.4,4.1l0.4,0.1l0.5,0c1.2-0.1,2.3-0.2,3.4-0.4
	l-2.1,3.2l7,1.4C702.9,404.6,713.5,407.6,723.3,411.1z M781.3,346.9c-1.6,7.5-5,13.9-10.6,19.5c-5.8,5.8-12.9,10.7-21,14.4
	c-8.3,3.9-17.4,6.8-27.1,8.7c-7,1.4-14.1,2.2-21,2.3c1.7-1.2,3.2-2.6,4.5-4.1c2.5-2.8,4.4-5.8,5.8-8.8c1.2-2.8,2.2-5.6,2.8-8
	c1.3-4.6,0.2-9.3-3.1-14c-3-4.2-8.1-7.9-15.6-11.2c-7-3-16.5-5.5-28.2-7.5c-11.6-1.9-26.1-2.9-43-2.9c-7.5,0-15.6,0.4-24,1.1
	c-8.4,0.7-16.5,2-24.1,3.8c-0.7,0.2-1.4,0.3-2,0.5c-7.5-17.8-15.5-35.1-24.1-51.7c8.5-2.6,17.5-4.9,27.2-6.6
	c18.8-3.4,39.8-5.1,62.2-5.1c28.9,0,53.3,2.3,72.3,6.8c18.9,4.5,34,10.2,44.9,17.2c10.5,6.7,17.6,14.1,21.1,22.1
	C781.9,331.5,782.9,339.2,781.3,346.9z"/>
</svg>
