<?xml version="1.0" encoding="utf-8"?>
<!-- Generator: Adobe Illustrator 24.1.3, SVG Export Plug-In . SVG Version: 6.00 Build 0)  -->
<svg version="1.1" id="Calque_1" xmlns="http://www.w3.org/2000/svg" xmlns:xlink="http://www.w3.org/1999/xlink" x="0px" y="0px"
	 viewBox="0 0 595.3 574.3" style="enable-background:new 0 0 595.3 574.3;" xml:space="preserve">
<style type="text/css">
	.st0{fill:#FFFFFF;}
</style>
<g>
	<path class="st0" d="M173.1,313.8c-0.5-24.7,2.9-49.1,6.4-73.5c1.4-10,7.2-16.1,16.5-18.2c8.8-1.9,17.2,1.4,22.3,8.5
		c5.1,7,10.1,10.8,11.7,23.2c1.4,30.6,8.3,62-10.7,90.8c-6.9,10.5-14.8,17.2-26.5,14.6c-12.9-2.8-20.2-12.1-19.7-26.3
		C173.3,326.6,173.1,320.2,173.1,313.8"/>
	<path class="st0" d="M275.7,337.8c6.1,0.7,12.9,1.6,14.6,11.6c1.5,8.9,13.7,16.2,22.8,15.5c5.3-0.4,10.7,1.1,15.6-2.8
		c3.5-2.8,9.9-3.5,8.9-9.3c-1.2-7.5-1.2-16.9-9.4-20.3c-17.9-7.6-26.8-25.3-42.3-35.4c-9.8-6.3-19.6-3-28.9,0.4
		c-8,3-12.6,10-11.7,18.8C247.2,332.2,256.4,338.8,275.7,337.8"/>
	<path class="st0" d="M313,262c-8.5,0-21.3,10-20.3,16.7c1.4,9,8.6,12.6,16.7,13c12.9,0.7,22.8-6,22.7-14.1
		C332,269.5,322.8,261.9,313,262"/>
	<path class="st0" d="M347,242.5c-3.1,0.7-5.8,2.2-5.6,6c0.2,3.3,2.5,4.9,5.7,4.9c3.3,0,5.3-1.8,5.1-5.3
		C351.9,245,350.5,242.7,347,242.5"/>
	<path class="st0" d="M313.3,210c2.7-0.4,4.9-1.5,4.7-4.6c-0.2-2.8-1.8-4.9-4.9-4.9c-2.7,0-4.4,1.5-4.4,4.3
		C308.8,207.7,310.2,209.6,313.3,210"/>
	<path class="st0" d="M412.1,248.3c20.1-10.2,38-3.9,46.6,16.3c1.3,3.1,0.6,4.9-1.7,7c-1.5,1.3-2.8,3.3-0.9,5.2
		c1.5,1.5,3.3,0.9,4.8-0.3c7.9-6.1,18.3-5.3,25.2,1.9c11.1,11.6,12.5,23.9,4.4,34.9c-4.5,6.2-10.8,6.7-17.4,6
		c-5.4-0.5-10.7-1.8-16-2.9c-3.3-0.7-4,1.4-4.3,3.7c-1.2,9.1-6.1,16.4-15,17.4c-9.5,1.1-15.9-6.4-20.6-13.8
		c-4.7-7.5-0.2-14.8,9.2-16.3c10.4-1.7,13.8-6.9,11.4-17.5c-0.9-3.8-10.6-5.6-14.1-3.3c-9.3,6.1-11.5,16.5-16.4,25.3
		c-2,3.6-3.9,5.6-8.2,5.3c-3.4-0.2-6.9-0.1-10.3,0.5c-13.3,2.4-21.9-7.1-20.6-20.6c1.2-12.7,11.9-17.2,18.4-25.4
		c5.8-7.3,12.5-12.3,22.1-5.2c1.9,1.4,2.4-1.3,2.8-2.9C412.6,258.5,408.9,253.2,412.1,248.3L412.1,248.3z"/>
	<path class="st0" d="M412.1,248.2c-6.9,2.4-13.3,6-20.6,7.5c-8.4,1.6-13.1-3.7-16.6-9.2c-3.3-5.3-0.4-10.8,4.4-14.6
		c5.1-4.2,10.8-7.5,14.9-13c3.5-4.7,14.7-0.4,15.8,6.3C411.4,232.7,411.5,240.5,412.1,248.2L412.1,248.2z"/>
	<path class="st0" d="M349.6,325.5c0.6-3.3,1-6.4,1.9-9.4c1.2-4,4.9-5,8.5-5.5c3.5-0.5,4.3,2.4,5.3,4.9c1.1,2.8,2.5,5.5,3.3,8.4
		c1.1,3.7,4.4,7.7,0.4,11.1c-3.7,3.2-8.9,3.1-13,1.4C351.8,334.7,351,329.6,349.6,325.5"/>
	<path class="st0" d="M399,341.9c7.7,0.1,9.5,5.7,9.7,11.5c0.3,7.6-5.2,11.2-11.9,11.1c-6.8-0.1-11-6.3-11.1-11.7
		C385.7,345.6,391.9,342.3,399,341.9"/>
	<path class="st0" d="M479.9,236.4c0.3-3.9,1.7-7.1,5.6-6.9c4.2,0.2,7.5,2.6,7.5,7.3c0,3.8-1.5,7.4-6,7.2
		C482.4,243.9,480.8,240.2,479.9,236.4"/>
	<path class="st0" d="M351.8,266c0.3-3.6,1.8-6.7,6.1-7.2c2.6-0.3,3.6,1.7,3.3,3.9c-0.5,3.6-0.9,7.8-5.6,8.3
		C352.5,271.4,351.8,268.8,351.8,266"/>
	<path class="st0" d="M531.4,354.4c-13.9,2.1-26.1-2.7-34.2-15c-5.8-8.8-7.9-18.7-6.2-28.9c4.2-24.5,4.7-49.8,16-72.8
		c4.6-9.2,11-14.2,21.3-13.4c10.3,0.8,15.3,7.2,18.6,16.7C552.5,256.5,557.6,350.5,531.4,354.4"/>
	<path class="st0" d="M141.7,360c-9.2,0.3-14.2-3.9-17.9-9.9c-1.8-2.9-3.6-4.3-7.2-4.1c-13,0.4-20-5.2-22.4-17.9
		c-0.6-3.1-1.9-4.4-5.2-4c-5.8,0.7-10.4,4.1-15.4,6.6c-2.1,1-2.6,3.6-2.4,6.1c0.6,8.3,6.3,12.7,14.3,10.9c2.3-0.5,4.3-0.3,5.5,1.9
		c1.2,2.2,2.3,4.6,0.9,6.9c-1.4,2.4-3.8,2.1-6.1,1.5c-0.9-0.2-2-0.3-2.6-0.8c-5.2-5.7-9.3-3.3-14.9,0.4c-7.8,5.3-22.6-4.7-23-14.5
		c-0.4-9.7,0-19.2,1.2-28.9c0.9-6.9,0-14.7-2.6-21.8c-1.7-4.7-1.3-9.8,1-13.7c4.1-7,2.6-13.8,1-20.6c-3.1-13-0.2-24.3,8.4-34.1
		c3.7-4.3,9.1-4.9,13.6-1.5c4.7,3.5,4.9,8.1,0.5,12.5c-1.6,1.6-1.6,3.5-1.5,5.5c0.3,5.9,9.3,14.5,15.1,14.9
		c5.3,0.4,8.9,3.6,11.2,8.2c2.2,4.3,5.9,6.2,9.8,8.8c6.5,4.4,17.4,5.3,17.4,17.4c0,3.6,1.7,6.3-1.3,9.8c-2.4,2.9-4.1,6.2-7.7,8
		c-2.2,1.2-5.2,2.3-4.2,5.6c0.9,3.1,3.7,2.6,6.4,2.6c5.8,0,11.4,2.1,16.1,5.4c4.3,3,2,7.9,1.4,11.9c-0.7,4.3-0.5,5.9,4.9,5.4
		c5.7-0.6,11.2,1.7,15.2,6.4c2.9,3.5,0.9,6.9-0.4,10.2C148.7,360,144.6,360.5,141.7,360"/>
	<path class="st0" d="M131.9,269.1c-11.4,1.6-18.2-5.8-25.3-12.6c-1.4-1.4-2.6-3-4.2-4.1c-3.4-2.2-6.2-4.6-5-9.2
		c1.2-4.3,4.9-6.1,8.6-7.3c3.7-1.2,7.7-1.3,11.6-2.2c3.5-0.8,5.6,0.3,6.6,3.7c1.3,4.2,3.1,8,6.2,11.4c2.8,3.1,5.6,4.8,9.7,4.9
		c2.6,0,5.4,0.3,6.6,3.1c1.1,2.7-1.7,3.8-2.9,5.7C140.9,266.8,137,269.2,131.9,269.1"/>
	<path class="st0" d="M153.2,228.1c-0.8,4.6-3.3,7.2-7,8.7c-4.7,1.9-8.5,0.1-12-3c-0.8-0.7-1.3-1.7-1.9-2.5
		c-6.5-9-6.3-10.5,2.1-15.7c5.9-3.6,12.3-1.2,16.2,6.2C151.6,223.9,152.4,226.2,153.2,228.1"/>
	<path class="st0" d="M87.2,229c-2.4-1.5-6.7-1.1-6-5.3c0.5-2.8,2.2-6.3,5.8-5.8c3.2,0.4,5.7,3,5.5,6.6
		C92.3,227.3,90.3,228.9,87.2,229"/>
	<path class="st0" d="M135.2,307.6c0,2.4-0.7,4.2-3,4c-2.7-0.2-4.5-2-4.5-4.7c0-2.4,1.4-4.6,4.1-4.4
		C135,302.7,134.7,305.7,135.2,307.6"/>
	<rect x="203.1" y="51.9" class="st0" width="26.5" height="124.5"/>
	<polygon class="st0" points="248.4,51.9 274.9,51.9 274.9,153.1 337.3,153.1 337.3,176.4 248.4,176.4 	"/>
	<path class="st0" d="M48,69.1c5.6-17.6,19.4-24.4,37.1-18.8c15.1,4.7,30,5.1,45.6,1.2c23.4-5.9,33.4,3.3,34.4,27.6
		c0.8,21.1,6.2,48.1,16.3,60.1c9.8,11.6,11.9,34.2,2.7,38.4c-6.2,6.1-24.5,1.7-35.1-7.5c-3.8-3.2-7.3-6.5-11.7-9.2
		c-15.4-9.7-29.6-9.9-43.3,1.7c-5,4.2-10.4,7.2-16,9.7c-14.8,6.7-25.1,2.1-29.9-13.5C43.4,143.7,38.4,109.9,48,69.1"/>
	<path class="st0" d="M360.8,111.5c1.3-0.1,2.5-0.5,3.9-0.4c1.1,0.1,2-0.5,2.6-1.6c0.7-1.2,1.4-2.4,2.1-3.6c0.5-0.8,0.5-1.6-0.1-2.3
		c-0.7-0.8-1.4-1.6-2.3-2.2c-1-0.7-1.7-1.6-2.1-2.6c-0.5-1.2-1-2.4-1.5-3.6c-0.2-0.6-0.2-1.1,0.1-1.7c0.6-1.1,1.2-2.1,1.8-3.2
		c0.5-0.8,1.1-1.4,2.2-1.4c0.3,0,0.7-0.1,1-0.1c0.7,0,1.3-0.3,1.8-0.7c0.4-0.4,0.9-0.7,1.3-1.1c0.5-0.4,0.6-0.9,0.4-1.6
		c-0.8-2.2-2.2-3.6-4.5-4.2c-0.6-0.2-1.1-0.1-1.7,0.1c-1.1,0.5-2,1.2-2.4,2.3c-0.5,1.5-1.7,2.2-2.9,2.8c-1.3,0.7-2.7,1.1-4.3,0.9
		c-0.9-0.1-1.7-0.5-2.3-1.2c-0.5-0.6-0.9-1.2-1.2-1.9c-0.5-1-0.4-1.9,0.3-2.8c0.4-0.4,0.8-0.8,1.2-1.2c0.5-0.4,1-0.6,1.5-0.9
		c1.2-0.9,2.2-1.9,2.7-3.4c0.5-1.2,0.9-2.4,1.1-3.8c0.3-2,1.4-3.6,3.1-4.9c0.7-0.5,1.3-1,1.9-1.6c0.8-0.7,1.7-1.3,2.8-1.5
		c0.3,0,0.6-0.1,1-0.2c1-0.3,1.7-0.9,2.1-1.9c0.3-0.8,0.6-1.7,1-2.5c0.5-1.3,1.3-2.2,2.7-2.7c1.2-0.4,2.2-1.1,3.4-1.4
		c0.8-0.2,1.5-0.7,2-1.3c0.9-0.8,1.9-1.4,3.1-1.2c1.2,0.1,2.1-0.4,2.8-1.2c0.5-0.5,0.8-1,1.2-1.5c1-1.3,2.2-2.4,3.8-3
		c0.9-0.3,1.8-0.7,2.8-0.9c1.1-0.2,2.2-0.5,3.2-1.1c0.5-0.3,1.1-0.3,1.7-0.3c1.7,0.2,3.4,0.4,5.1,0c0.2-0.1,0.5,0,0.7,0.1
		c0.8,0.5,1.6,0.9,2.3,1.5c1,0.7,1.4,1.8,1.5,3c0,1.4,0.1,2.8,0.1,4.2c0,0.8,0.6,1.2,1.3,1.1c0.3,0,0.6-0.1,1-0.2
		c0.8-0.2,1.6-0.2,2.4,0c1.1,0.3,2.3,0.5,3.3,0.8c1.1,0.3,2.3,0.4,3.4,0c1.5-0.6,2.7,0,3.7,1.1c1.3,1.4,2.5,2.8,3.7,4.3
		c1,1.2,2.1,2.3,3.6,2.9c0.5,0.2,0.9,0.4,1.3,0.7c0.7,0.5,1.5,0.7,2.3,0.6c0.5,0,1,0,1.5,0c1.2,0,2.1,0.6,2.6,1.6
		c0.4,0.8,0.8,1.6,1,2.5c0.3,1.1,0.5,2.3,0.6,3.4c0.1,1.9-0.6,3.6-2.1,4.8c-1.1,0.9-2.4,1.7-3.6,2.6c-1.9,1.4-2,2.4-0.5,4.3
		c0.8,1,1.7,2,2.7,2.9c0.8,0.8,1.4,1.6,1.7,2.7c0.3,0.9,0.7,1.9,1.1,2.7c0.6,1.3,1.3,2.5,1.5,3.9c0,0.2,0.2,0.5,0.3,0.7
		c0.4,1.1,1.2,1.8,2.4,1.8c1.2-0.1,2.2,0.3,3.2,0.9c1.4,0.8,2.9,1,4.5,0.6c0.5-0.1,1-0.2,1.4-0.3c2-0.3,3.7,0.5,5.5,1.1
		c0.5,0.2,0.8,0.6,0.9,1.1c0.1,0.6,0.2,1.1,0.2,1.7c0,0.6-0.1,1.1-0.1,1.7c0,0.9,0.2,1.9,0.9,2.5c1.1,1.1,2.2,2.2,3.8,2.7
		c1.2,0.4,2.5,0.9,3.7,1.3c1.9,0.6,3,1.9,3.8,3.6c0.9,2.1,1.3,4.2,1,6.5c-0.1,1.2-0.5,2.2-1.4,3.1c-0.2,0.2-0.5,0.5-0.7,0.7
		c-0.7,0.6-1.3,1.3-1.5,2.2c-0.3,0.9-0.9,1.5-1.9,1.7c-0.2,0-0.4,0.3-0.7,0.5c0.5,0.3,0.9,0.5,1.4,0.7c0.4,0.1,0.8,0,1.2,0
		c0.7,0,1.3,0.4,1.5,1.1c0.6,2.3,1.6,4.5,2.7,6.6c0.4,0.9,0.6,1.7,0.4,2.6c-0.4,1.8-0.8,3.5-0.9,5.3c0,0.6-0.3,1.1-0.8,1.5
		c-0.6,0.5-1.3,1-2,1.4c-0.8,0.5-1.6,0.9-2.4,1.2c-1.8,0.8-3.1,2.1-4.4,3.4c-0.7,0.7-0.9,1.5-0.7,2.5c0.2,1,0.6,1.5,1.6,1.5
		c1.3,0.1,2.6,0.4,3.8,0.9c0.9,0.4,1.7,0.9,2.2,1.8c0.2,0.4,0.5,0.8,0.8,1.3c1.6,2.5,0.3,5.6-2.6,6c-2.1,0.3-4.2,0.6-6.3-0.1
		c-0.9-0.3-1.8-0.3-2.7,0c-1.1,0.3-2.3,0.3-3.4,0.1c-1.2-0.2-2.4-0.4-3.6-0.6c-0.1,0-0.2,0-0.2,0c-1.9,0-3.7-0.3-5.5-1.1
		c-1-0.4-2-0.3-2.8,0.3c-0.9,0.6-1.9,0.9-3,1.1c-0.2,0-0.3,0-0.5,0.1c-2.4,0.7-4.9,1.3-7.5,1.4c-0.3,0-0.7,0.1-1,0.2
		c-1.2,0.5-2.4,0.6-3.6,0.4c-0.4-0.1-0.8,0-1.2,0.1c-0.8,0.2-1.6,0.9-1.6,1.6c0,1.7-0.5,3.2-1.3,4.7c-0.3,0.6-0.4,1.2-0.6,1.9
		c-0.2,1-0.8,1.8-1.5,2.5c-0.7,0.7-1.5,1-2.4,0.9c-0.9-0.1-1.8-0.1-2.7-0.1c-1.5,0.1-3-0.2-4.2-1.2c-1.5-1.2-2.3-2.8-2.2-4.7
		c0-0.7,0.1-1.3,0.1-2c0-0.5-0.5-0.9-1-0.8c-1.7,0.4-3.4,0.3-4.8,1.7c-0.5,0.5-1.2,0.5-1.8,0.5c-0.9,0-1.8,0-2.7,0
		c-1.2,0-2.3,0.3-3.2,1.1c-0.5,0.4-1.1,0.8-1.6,1.1c-1.2,0.6-2.4,1.2-3.2,2.3c-2,1.4-4,2.5-6.6,2.3c-1.3-0.1-2.6,0-3.9,0.3
		c-2.1,0.5-4.1,0.1-5.7-1.5c-1.1-1-2.3-1.9-3.6-2.5c-0.7-0.4-1.4-0.8-2.1-1.2c-0.9-0.6-1.8-0.7-2.8-0.2c-0.4,0.2-0.9,0.4-1.4,0.5
		c-1,0.2-1.8,0.8-2.5,1.5c-1.3,1.4-3.2,2-4.8,3c-0.3,0.2-0.8,0.2-1.2,0.2c-0.8,0-1.6-0.1-2.5-0.1c-1-0.1-1.6-0.6-1.9-1.7
		c-0.4-1.9,0.1-3.6,1.4-5c1.2-1.3,2.4-2.5,3.6-3.7c0.9-0.8,1.3-1.7,1.1-2.8c-0.1-1.1,0-2.1,0.5-3.1c0.3-0.6,0.3-1.4,0.5-2.1
		c0.2-1,0.4-2.1,0.6-3.1c0.2-1,0.9-1.5,1.9-1.7c1-0.1,2-0.3,2.9-0.4c0.5-0.1,1-0.2,1.4-0.4c2.1-1.5,4.4-2.8,6.8-3.9
		c0.4-0.2,0.7-0.4,1-0.7c0.2-0.2,0.3-0.6,0.4-0.9c0.1-0.3-0.1-0.7-0.4-0.8c-1.7-0.6-3.4-1.1-5.3-1c-0.6,0-1.1,0.1-1.7,0.1
		c-0.4,0-0.8-0.2-1.1-0.5c-0.7-1.2-1.5-2.4-2.2-3.6c-0.2-0.3-0.3-0.8-0.3-1.2c0-0.7,0-1.5,0.1-2.2c0.2-1.1,0.4-2.3,0.3-3.4
		c-0.1-1.3,0.4-2.4,1.4-3.2c0.5-0.4,1.1-0.7,1.8-0.8c0.2,0,0.5-0.1,0.7-0.1c1.1,0.1,2.2-0.9,3.1-0.2c1.4,1,2.9,1.8,3.8,3.4
		c0.2,0.4,0.4,0.7,0.6,1.1c0.4,0.9,0.9,1.5,1.8,2c1.7,0.9,1.6,3.1,0.3,4.2c-1,0.8-1.7,1.8-1.9,3.1c-0.1,0.4,0,0.8,0,1.3
		c0.8,0.2,1.4-0.4,2.1-0.4c1-0.1,1.7-0.6,2.2-1.4c0.7-1.2,2-1.9,2.9-3c0.3-0.3,0.8-0.5,1.3-0.7c1.3-0.5,2.3-1.3,2.9-2.5
		c0.5-1.1,1.5-1.7,2.4-2.4c0.4-0.4,0.4-0.9-0.2-1.2c-0.1-0.1-0.3-0.2-0.4-0.2c-2-0.7-3.8-1.9-5.7-2.8c-1.4-0.6-2.2-1.6-2.3-3.2
		c0-1-0.3-1.9-0.5-2.9c-0.2-1-0.9-1.5-1.9-1.6c-1.3-0.1-2.6-0.3-3.9-0.3c-0.6,0-1.3,0.1-1.9,0.3c-0.7,0.2-1.4,0.2-2.2,0.1
		c-1-0.1-2-0.1-2.9-0.1c-0.9,0-1.8,0.1-2.7,0.3c-0.6,0.1-1.1,0.2-1.7,0.4c-0.8,0.2-1.4,0.8-1.8,1.6c-0.2,0.4-0.3,0.8-0.4,1.1
		c-0.2,0.9-0.8,1.6-1.4,2.3c-1,1.1-2.3,1.3-3.6,0.9c-1.9-0.6-3.1-2.1-3.9-3.8c-0.4-0.8-0.3-1.8,0.1-2.6c0.4-0.9,0.9-1.8,1.8-2.3
		c0.9-0.6,1.8-1.1,2.7-1.7c0.4-0.2,0.9-0.4,1.3-0.7c0.5-0.3,0.8-0.8,0.9-1.4c0.3-1.8,0.3-3.6,0.1-5.4c0-0.2-0.1-0.5-0.1-0.7
		c-0.1-0.7,0-1.3,0.4-1.9c0.5-0.7,1.1-1.2,1.2-2.1C360.6,111.8,360.7,111.7,360.8,111.5"/>
	<path class="st0" d="M360.8,111.5c-0.1,0.1-0.2,0.3-0.3,0.4c-1.3-0.2-2.6-0.3-3.9-0.5c-1.6-0.3-2.9-1.2-4-2.3
		c-1.2-1.3-1.5-2.9-0.4-4.5c0.5-0.7,1.1-1.4,1.8-2c1.7-1.5,4-1.5,5.6,0.1c1.5,1.5,2.4,3.3,1.9,5.5
		C361.2,109.3,361,110.4,360.8,111.5"/>
	<path class="st0" d="M356,158.4c-1.4,0.1-2.5-0.6-3.1-1.9c-0.3-0.5-0.5-1-0.7-1.6c-0.7-1.8-0.2-3.4,1.3-4.6
		c0.8-0.6,1.6-1.1,2.4-1.6c0.6-0.4,1.2-0.3,1.9,0c1.6,0.9,2.8,2.2,3.1,4.2c0.1,0.6,0.2,1.1,0.3,1.7c0.1,0.7,0,1.3-0.3,1.9
		c-0.2,0.3-0.5,0.8-0.8,0.9C358.8,157.9,357.5,158.5,356,158.4"/>
	<path class="st0" d="M372,48.7c0-0.1,0.1-0.6,0.3-1c0.1-0.4,0.8-0.7,1.2-0.6c2.7,0.6,3.2,3.1,2.4,4.9c-0.2,0.5-0.7,0.9-1.3,1
		c-0.7,0.1-1.3-0.1-1.7-0.6C372.2,51.3,371.9,50.2,372,48.7"/>
	<path class="st0" d="M359.8,59.9c-0.2,0.2-0.4,0.5-0.7,0.6c-0.6,0.2-1.2,0-1.8-0.3c-0.3-0.2-0.4-0.8-0.1-1.1
		c0.6-0.6,1.8-0.6,2.3,0.1C359.7,59.3,359.7,59.6,359.8,59.9"/>
	<path class="st0" d="M404.6,43.6c-0.1,0.1-0.1,0.3-0.3,0.5c-0.2,0.3-0.6,0.3-0.8,0c-0.1-0.2-0.2-0.4-0.2-0.7
		c-0.1-0.4,0.3-0.9,0.7-0.8c0.3,0.1,0.5,0.3,0.6,0.7C404.6,43.3,404.6,43.4,404.6,43.6"/>
	<path class="st0" d="M485.7,136.3c-0.5-23.8,2.8-47.2,6.1-70.6c1.4-9.6,6.9-15.5,15.9-17.4c8.5-1.8,16.5,1.3,21.4,8.2
		c4.9,6.8,9.7,10.4,11.3,22.3c1.3,29.4,8,59.6-10.3,87.3c-6.7,10.1-14.2,16.6-25.5,14.1c-12.4-2.7-19.4-11.7-18.9-25.3
		C485.9,148.6,485.7,142.4,485.7,136.3"/>
	<polygon class="st0" points="141.5,526.8 175.4,526.8 123.6,442.3 167.5,398.8 133.1,398.8 79.9,453.3 79.9,398.8 52.6,398.8 
		52.6,526.8 79.9,526.8 79.9,484.2 102.7,461.1 	"/>
	<path class="st0" d="M175,493.7c1.7-3.5,1.5-2.3-0.9-9.9c-2.3-7.5,2.6-14.4,2.6-14.4c1.8-2.5,4.4-2.6,7.1-2.2
		c0.7,0.1,1.4,0.1,2.1,0c1.5-0.2,2.6-1.1,3.3-2.4c0.2-0.5,0.4-1,0.5-1.5c0.6-4.2,2.9-7.5,5.3-10.8c4-5.3,9.4-8.6,15.9-9.6
		c2.9-0.4,5-1.6,6.4-4.1c1.4-2.4,3.4-4.1,5.7-5.4c2.1-1.3,4.2-2.7,6.3-3.9c2.1-1.2,3.8-0.9,5.1,1c1.3,1.9,2.5,3.8,3.6,5.8
		c1.5,2.7,2.2,5.6,1,8.7c-0.1,0.3-0.3,0.7-0.3,1c0.1,3.6-1,6.9-2.8,10.1c-0.3,0.6-0.6,1.3-0.6,2c0.1,3-1.3,5.4-2.7,7.8
		c-1.3,2.3-2.3,4.7-4,6.8c-1.6,2.1-1.2,5.3,0.7,7.3c1.2,1.3,2.5,2.5,3.9,3.6c2.9,2.5,4.7,5.7,6.4,9c0.6,1.1,1,2.3,0.6,3.6
		c-0.7,2.4-0.9,4.8-0.7,7.3c0.2,2.5-0.8,4.5-2.7,6.1c-0.5,0.5-1.1,0.9-1.6,1.4c-1.1,1-1.8,2.1-2.2,3.5c-0.7,2.7-1.6,5.4-2.3,8.1
		c-0.6,2.3-1.6,4.3-3.3,6c-1.1,1.1-2.3,1.7-3.8,1.6c-2.5-0.3-4.9-0.4-7.3,0.5c-4.3-0.5-8.9-0.1-13-2c-2.2-1-4.3-2.4-6.3-3.9
		c-1-0.7-1.7-1.8-2.4-2.8c-1.4-2.3-2-4.8-2.2-7.5c-0.1-2.1,0.4-3.9,1.8-5.4c2.2-2.5,4.3-5.2,7.1-7.2c0.9-0.6,1.7-1.3,2.5-2
		c1.5-1.6,3.3-2.6,5.5-2.9c2.9-0.5,4.8-2.2,5.8-4.8c0.9-2.6,2.2-4.8,4.3-6.5c0.7-0.5,1.1-1.4,1.5-2.1c0.8-1.3,0.1-2.5-1.4-2.4
		c-2.7,0.1-5.3-0.1-7.8-1c-2-0.7-3.8-0.6-5.5,0.8c-0.7,0.5-1.4,1.1-2.2,1.4c-2,0.7-3,2.3-3.9,4.1c-0.7,1.6-1.5,3.2-2.5,4.7
		c-2.8,4.5-7,6.8-12.2,7.3c-2.5,0.2-4.9,0.5-7.4,0.8C178.2,499,173.2,497.2,175,493.7"/>
	<path class="st0" d="M216.4,430.6c-2.6-0.2-4.3-0.4-6.1-0.5c-2-0.2-3.8,0.2-5.6,1.1c-1.7,0.9-3.5,1.6-5.3,2.4
		c-3,1.2-5.6,2.9-7.3,5.8c-0.7,1.3-1.7,2.2-3,2.9c-1,0.6-2.1,0.7-3-0.1c-1.7-1.6-3.5-3.1-4.7-5c-1.4-2.2-0.9-4.8,0.4-7
		c0.7-1.2,1.7-2.2,2.7-3.2c1.2-1.2,2.6-2.3,3.9-3.5c1.4-1.3,2.1-2.7,1.6-4.7c-0.9-3.6,0.5-6.6,2.6-9.4c1.2-1.7,2.8-3.2,4.1-4.8
		c1.1-1.4,2.3-2.7,3.1-4.3c2.2-4.2,5.9-5.8,10.1-5.1c4.3,0.6,8.7,1.2,13,2c2.3,0.4,3.8,1.7,4.6,3.9c1.7,4.7,3.1,9.3,1.7,14.4
		c-0.5,1.7-0.3,3.5-0.3,5.3c-0.1,2.9-1.4,5.1-3.7,6.7C222.5,429.4,219.2,430.5,216.4,430.6"/>
	<path class="st0" d="M256.7,493.8c-0.3-0.1-1-0.2-1.6-0.5c-2.2-1.3-3.7-4.8-2.9-7.3c0.3-0.8,0.9-1.6,1.5-2c1-0.7,2.2-1.1,3.3-1.5
		c1.7-0.5,3.1,0.2,4.2,1.5c1.2,1.4,1.7,3.1,1.5,4.9C262.5,491.9,260.3,493.8,256.7,493.8"/>
	<path class="st0" d="M248.9,384.1c1.7,0.1,3.7,0.6,5.5,1.7c0.8,0.5,1.3,1.2,1.3,2.1c0.2,2.6-1,4.4-3.1,5.6
		c-1.9,1.1-3.7,0.7-5.5-0.3c-2-1.2-3-2.9-2.8-5.2C244.5,385.6,246.1,384.1,248.9,384.1"/>
	<path class="st0" d="M254.1,438.3c0-2,0.4-3.1,1.7-3.7c1.3-0.7,2.7-0.8,4,0c0.4,0.3,0.8,0.7,1,1.2c0.9,2.4-0.2,5-2.7,6
		c-0.9,0.4-2.3,0.1-2.8-0.8C254.7,439.9,254.4,438.8,254.1,438.3"/>
	<path class="st0" d="M278.6,413.6c6.8-14.8,22.2-22.4,31.3-13.1c5.3,5.5,6.6,13.5,8.3,21.1c2.3,10.6,2.3,21.3,4.5,31.9
		c4.2,20.7,15.1,35.9,32.1,47.7c5.5,3.8,9.2,9.6,8.3,16.7c-1,7.5-7.9,8.6-13.4,10.3c-43.4,13-74.4-13-77-57.9
		C272.2,464.1,268.8,434.8,278.6,413.6"/>
	<path class="st0" d="M434.9,504.3h-34.4V473h35.7c14.1,0,21,5.1,21,15.4C457.2,499.2,448.6,504.3,434.9,504.3 M400.5,421.1H436
		c11,0,18.5,4.8,18.5,14.1c0,10.1-6.6,15.2-19.9,15.2h-34V421.1z M460.9,460.6c10.4-2.6,21-12.1,21-27.8c0-20.5-14.1-34-42.3-34
		h-66.4v128.1h67.3c30.6,0,44.6-14.6,44.6-36.8C485.2,475,476,464.3,460.9,460.6"/>
	<path class="st0" d="M515.7,528.5c12.5,2.1,23.6-2.8,31-15.2c5.2-8.9,7.2-19,5.6-29.4c-3.8-24.9-4.2-50.6-14.5-73.9
		c-4.1-9.4-10-14.4-19.2-13.6c-9.4,0.8-13.9,7.4-16.9,16.9C496.6,429,491.9,524.5,515.7,528.5"/>
</g>
</svg>
